# This file uses meters as units for non-parametric coordinates.

mtllib rock_02.mtl
g default
v 4.249385 -55.949322 122.211792
v 7.872880 95.985031 39.777855
v 91.125328 36.913818 37.796249
v -71.837692 -37.829212 -39.453873
v -66.975952 91.518570 -58.271805
v -90.565948 24.128029 96.288574
v 88.818588 -33.712212 -51.864006
v 59.827339 92.597069 -36.996792
v -88.924271 65.055130 41.676712
v -60.790436 64.923553 90.999115
v 105.851990 9.369423 -16.999866
v 6.273333 95.005211 -72.026779
v 74.748459 8.833084 -87.712212
v 95.912094 -25.014523 42.409142
v -61.597939 99.598648 28.904152
v -31.366749 29.842308 113.885735
v 9.595537 93.175766 -28.542686
v -74.189491 65.872299 -38.708878
v 54.010483 54.483604 -59.077995
v -103.222641 -2.163261 33.460892
v -51.361652 151.757553 28.904152
v 7.872880 130.656052 39.777855
v 9.595537 145.334656 -28.542686
v -56.739662 143.677490 -58.271805
v 59.827339 113.584114 -36.996792
v 6.273333 147.164108 -72.026779
v -41.346252 151.132141 23.113483
v -2.327271 148.344635 0.451024
v 4.152656 145.432053 -21.418898
v -44.248795 143.156128 -45.568001
v -4.745622 146.143585 -63.516457
v -37.204582 162.840851 11.970221
v -19.600063 160.676834 17.547197
v -5.078070 162.094131 -25.542009
v -40.580811 162.967621 -42.332695
v -6.886218 154.915558 -49.499565
v 4.249385 -55.949322 131.124390
v 76.489899 14.973305 63.231674
v 2.253177 11.543991 126.112015
v 95.912094 -25.014523 67.844559
v 6.697717 82.292114 -92.035713
v 62.065838 12.614418 -104.718765
v -44.253792 79.472855 -80.913628
v -50.805984 58.735611 -65.095291
v -56.461876 -25.116116 -65.697678
v 73.442764 -21.787167 -75.732338
v 6.697717 82.292114 -110.365791
v 62.065838 12.614418 -123.048836
v -2.712743 0.561882 -127.177345
v -44.253792 79.472855 -99.243713
v -50.805984 58.735611 -83.425369
v -56.461876 -25.116116 -84.027763
v 73.442764 -21.787167 -94.062424
vn 0.642441 0.075635 0.762593
vn 0.642441 0.075635 0.762593
vn 0.642441 0.075635 0.762593
vn -0.547357 -0.820338 0.165664
vn -0.547358 -0.820338 0.165664
vn -0.547357 -0.820338 0.165664
vn 0.016254 -0.992770 -0.118924
vn 0.016254 -0.992770 -0.118924
vn 0.016254 -0.992770 -0.118924
vn -0.844313 0.238262 -0.479965
vn -0.844313 0.238262 -0.479965
vn -0.844313 0.238262 -0.479965
vn 0.549876 0.763619 0.338411
vn 0.549876 0.763619 0.338411
vn 0.549876 0.763619 0.338411
vn 0.025492 0.198595 -0.979750
vn 0.025492 0.198595 -0.979750
vn 0.025492 0.198595 -0.979750
vn -0.282692 -0.024297 0.958903
vn -0.282692 -0.024297 0.958903
vn -0.282692 -0.024297 0.958903
vn -0.711675 0.572264 0.407471
vn -0.711675 0.572264 0.407471
vn -0.711675 0.572264 0.407471
vn 0.364437 -0.929400 0.058325
vn 0.364437 -0.929400 0.058325
vn 0.364437 -0.929400 0.058325
vn 0.758824 0.556725 -0.337999
vn 0.758824 0.556725 -0.337999
vn 0.758824 0.556725 -0.337999
vn -0.219648 0.220758 -0.950274
vn -0.219648 0.220758 -0.950274
vn -0.219648 0.220758 -0.950274
vn 0.100905 0.992661 0.066657
vn 0.100905 0.992661 0.066657
vn 0.100905 0.992661 0.066657
vn -0.639309 0.048635 -0.767410
vn -0.639309 0.048635 -0.767410
vn -0.639309 0.048635 -0.767410
vn -0.019100 -0.848556 -0.528761
vn -0.019100 -0.848556 -0.528761
vn -0.019100 -0.848556 -0.528761
vn -0.983357 -0.021005 -0.180464
vn -0.983357 -0.021005 -0.180464
vn -0.983357 -0.021005 -0.180464
vn 0.024204 0.999707 0.000829
vn 0.024204 0.999707 0.000829
vn 0.024204 0.999707 0.000829
vn -0.030940 0.872504 0.487626
vn -0.030940 0.872504 0.487627
vn -0.030940 0.872504 0.487627
vn 0.413901 0.559238 0.718289
vn 0.413901 0.559238 0.718289
vn 0.413901 0.559238 0.718289
vn 0.875816 0.482592 -0.007206
vn 0.875816 0.482592 -0.007206
vn 0.875816 0.482592 -0.007206
vn 0.462695 0.320099 0.826710
vn 0.462695 0.320099 0.826710
vn 0.462695 0.320099 0.826710
vn 0.547198 0.815389 0.188983
vn 0.547198 0.815390 0.188983
vn 0.547198 0.815389 0.188983
vn 0.733043 0.253743 -0.631080
vn 0.733043 0.253743 -0.631080
vn 0.733043 0.253743 -0.631080
vn 0.162101 -0.603931 -0.780379
vn 0.162101 -0.603931 -0.780379
vn 0.162101 -0.603931 -0.780379
vn 0.914861 -0.036282 -0.402136
vn 0.914861 -0.036282 -0.402136
vn 0.914861 -0.036282 -0.402136
vn 0.972247 0.091198 0.215452
vn 0.972247 0.091198 0.215452
vn 0.972246 0.091198 0.215452
vn 0.939717 -0.339681 -0.039369
vn 0.939717 -0.339681 -0.039369
vn 0.939717 -0.339681 -0.039369
vn -0.801140 0.581646 -0.140937
vn -0.801140 0.581646 -0.140937
vn -0.801140 0.581646 -0.140937
vn -0.654508 0.656451 0.375087
vn -0.654508 0.656451 0.375087
vn -0.654508 0.656451 0.375087
vn -0.298053 0.333506 0.894393
vn -0.298053 0.333506 0.894393
vn -0.298053 0.333506 0.894393
vn 0.233146 0.660914 0.713328
vn 0.233146 0.660914 0.713328
vn 0.233146 0.660914 0.713327
vn 0.162426 0.941764 -0.294446
vn 0.162426 0.941764 -0.294446
vn 0.162426 0.941764 -0.294446
vn 0.638051 0.595801 -0.487763
vn 0.638051 0.595801 -0.487763
vn 0.638051 0.595801 -0.487763
vn -0.955576 0.293026 0.031791
vn -0.955576 0.293026 0.031791
vn -0.955576 0.293026 0.031791
vn -0.781760 -0.202801 -0.589681
vn -0.781760 -0.202801 -0.589681
vn -0.781760 -0.202801 -0.589681
vn -0.136809 0.512137 -0.847938
vn -0.136809 0.512137 -0.847938
vn -0.136809 0.512137 -0.847938
vn 0.649820 0.759883 -0.017677
vn 0.649820 0.759883 -0.017677
vn 0.649820 0.759883 -0.017677
vn -0.974353 0.193148 0.115458
vn -0.974353 0.193148 0.115458
vn -0.974353 0.193148 0.115458
vn -0.652655 -0.643093 0.400591
vn -0.652655 -0.643093 0.400591
vn -0.652655 -0.643093 0.400591
vn -0.162990 0.019215 0.986441
vn -0.162990 0.019215 0.986441
vn -0.162990 0.019215 0.986441
vn -0.162990 0.019215 0.986441
vn -0.980389 0.192403 0.042648
vn -0.980389 0.192403 0.042648
vn -0.980389 0.192403 0.042648
vn -0.980389 0.192403 0.042648
vn 0.828190 0.000000 0.560448
vn 0.828190 0.000000 0.560448
vn 0.828190 0.000000 0.560448
vn 0.828190 0.000000 0.560448
vn -0.165968 0.000000 -0.986131
vn -0.165968 0.000000 -0.986131
vn -0.165968 0.000000 -0.986131
vn -0.165968 0.000000 -0.986131
vn 0.997094 0.000000 -0.076178
vn 0.997094 0.000000 -0.076178
vn 0.997094 0.000000 -0.076178
vn 0.997094 0.000000 -0.076178
vn -0.198818 0.019509 -0.979842
vn -0.198818 0.019509 -0.979842
vn -0.198818 0.019509 -0.979842
vn -0.198818 0.019509 -0.979842
vn 0.260514 0.903398 0.340594
vn 0.260514 0.903398 0.340594
vn 0.260514 0.903398 0.340594
vn 0.260514 0.903398 0.340594
vn 0.583066 0.797107 0.157017
vn 0.583066 0.797107 0.157017
vn 0.583066 0.797107 0.157017
vn 0.583066 0.797107 0.157017
vn 0.083197 0.990827 -0.106493
vn 0.083197 0.990827 -0.106493
vn 0.083197 0.990827 -0.106493
vn 0.083197 0.990827 -0.106493
vn -0.024529 0.999149 0.033168
vn -0.024529 0.999149 0.033168
vn -0.024529 0.999149 0.033168
vn -0.024529 0.999149 0.033168
vn -0.039676 0.996381 0.075172
vn -0.039676 0.996381 0.075172
vn -0.039676 0.996381 0.075172
vn -0.039676 0.996381 0.075172
vn 0.281204 -0.083137 0.956040
vn 0.281204 -0.083137 0.956040
vn 0.281204 -0.083137 0.956040
vn 0.281204 -0.083137 0.956040
vn 0.767486 0.596676 0.234401
vn 0.767486 0.596676 0.234401
vn 0.767486 0.596676 0.234401
vn 0.767486 0.596676 0.234401
vn -0.968104 0.248289 0.033579
vn -0.968104 0.248289 0.033579
vn -0.968104 0.248289 0.033579
vn -0.968104 0.248289 0.033579
vn 0.868071 0.460371 -0.185772
vn 0.868071 0.460371 -0.185772
vn 0.868071 0.460371 -0.185772
vn 0.868071 0.460371 -0.185772
vn -0.247295 0.510345 -0.823646
vn -0.247295 0.510345 -0.823646
vn -0.247295 0.510345 -0.823646
vn -0.247295 0.510345 -0.823646
vn 0.373265 0.721706 0.582936
vn 0.373265 0.721706 0.582936
vn 0.373265 0.721706 0.582936
vn 0.373265 0.721706 0.582936
vn -0.556042 -0.064331 0.828661
vn -0.556042 -0.064331 0.828661
vn -0.556042 -0.064331 0.828661
vn -0.556042 -0.064331 0.828661
vn 0.319766 -0.947497 0.000000
vn 0.319766 -0.947497 0.000000
vn 0.319766 -0.947497 0.000000
vn 0.319766 -0.947497 0.000000
vn 0.898001 0.246313 0.364587
vn 0.898001 0.246313 0.364587
vn 0.898001 0.246313 0.364587
vn 0.898001 0.246313 0.364587
vn 0.690279 0.617238 -0.377534
vn 0.690279 0.617238 -0.377534
vn 0.690279 0.617238 -0.377535
vn 0.690279 0.617238 -0.377534
vn -0.152998 0.816350 -0.556924
vn -0.152998 0.816350 -0.556924
vn -0.152998 0.816350 -0.556924
vn -0.152998 0.816350 -0.556924
vn -0.806003 0.018449 -0.591623
vn -0.806003 0.018449 -0.591623
vn -0.806003 0.018449 -0.591623
vn -0.806003 0.018449 -0.591623
vn -0.011085 -0.897346 -0.441189
vn -0.011085 -0.897346 -0.441189
vn -0.011085 -0.897346 -0.441189
vn -0.011085 -0.897346 -0.441189
vn 0.741576 -0.271618 -0.613423
vn 0.741576 -0.271618 -0.613423
vn 0.741576 -0.271618 -0.613423
vn 0.741577 -0.271618 -0.613423
vn -0.752292 -0.243656 -0.612118
vn -0.752292 -0.243656 -0.612118
vn -0.752292 -0.243656 -0.612118
vn -0.752292 -0.243656 -0.612118
vn 0.782915 0.622129 0.000000
vn 0.782915 0.622129 0.000000
vn 0.782915 0.622129 0.000000
vn 0.782915 0.622129 0.000000
vn -0.055248 0.998473 0.000000
vn -0.055248 0.998473 0.000000
vn -0.055248 0.998473 0.000000
vn -0.055248 0.998473 0.000000
vn -0.997733 0.067298 0.000000
vn -0.997733 0.067298 0.000000
vn -0.997733 0.067298 0.000000
vn -0.997733 0.067298 0.000000
vn 0.025618 -0.999672 0.000000
vn 0.025618 -0.999672 0.000000
vn 0.025618 -0.999672 0.000000
vn 0.025618 -0.999672 0.000000
vn 0.949428 0.313985 0.000000
vn 0.949428 0.313985 0.000000
vn 0.949428 0.313985 0.000000
vn 0.949428 0.313985 0.000000
vn -0.953535 0.301281 0.000000
vn -0.953535 0.301281 0.000000
vn -0.953535 0.301281 0.000000
vn -0.953535 0.301281 0.000000
s off
g Rock2:Group21986
usemtl initialShadingGroup
f 37//1 38//2 39//3
f 20//4 4//5 1//6
f 1//7 4//8 7//9
f 4//10 20//11 9//12
f 2//13 3//14 8//15
f 47//16 48//17 49//18
f 1//19 16//20 6//21
f 9//22 6//23 10//24
f 1//25 7//26 14//27
f 11//28 13//29 19//30
f 50//31 47//32 49//33
f 32//34 33//35 34//36
f 51//37 49//38 52//39
f 49//40 53//41 52//42
f 4//43 9//44 18//45
f 32//46 34//47 35//48
f 10//49 2//50 15//51
f 16//52 3//53 2//54
f 3//55 11//56 8//57
f 37//58 40//59 38//60
f 22//61 25//62 23//63
f 11//64 19//65 8//66
f 48//67 53//68 49//69
f 7//70 13//71 11//72
f 14//73 11//74 3//75
f 14//76 7//77 11//78
f 18//79 9//80 15//81
f 9//82 10//83 15//84
f 6//85 16//86 10//87
f 10//88 16//89 2//90
f 35//91 34//92 36//93
f 12//94 19//95 13//96
f 18//97 15//98 5//99
f 50//100 49//101 51//102
f 17//103 8//104 19//105
f 17//106 19//107 12//108
f 20//109 6//110 9//111
f 20//112 1//113 6//114
f 15//115 2//116 22//117 21//118
f 5//119 15//120 21//121 24//122
f 2//123 8//124 25//125 22//126
f 8//127 17//128 23//129 25//130
f 17//131 12//132 26//133 23//134
f 12//135 5//136 24//137 26//138
f 21//139 22//140 28//141 27//142
f 22//143 23//144 29//145 28//146
f 24//147 21//148 27//149 30//150
f 23//151 26//152 31//153 29//154
f 26//155 24//156 30//157 31//158
f 27//159 28//160 33//161 32//162
f 28//163 29//164 34//165 33//166
f 30//167 27//168 32//169 35//170
f 29//171 31//172 36//173 34//174
f 31//175 30//176 35//177 36//178
f 3//179 16//180 39//181 38//182
f 16//183 1//184 37//185 39//186
f 1//187 14//188 40//189 37//190
f 14//191 3//192 38//193 40//194
f 12//195 13//196 42//197 41//198
f 5//199 12//200 41//201 43//202
f 4//203 18//204 44//205 45//206
f 7//207 4//208 45//209 46//210
f 13//211 7//212 46//213 42//214
f 18//215 5//216 43//217 44//218
f 41//219 42//220 48//221 47//222
f 43//223 41//224 47//225 50//226
f 45//227 44//228 51//229 52//230
f 46//231 45//232 52//233 53//234
f 42//235 46//236 53//237 48//238
f 44//239 43//240 50//241 51//242
