# This file uses meters as units for non-parametric coordinates.

mtllib Rubble_01.mtl
g default
v -3.738342 7.040604 -45.530243
v 6.145111 7.040604 -37.699722
v 13.143951 7.040604 -40.477707
v 20.012070 7.040604 -48.571747
v 11.614243 7.040604 -55.588852
v -2.364502 7.040604 -54.394302
v -3.809006 10.228535 -45.786011
v 5.884750 10.228535 -37.721863
v 12.947891 10.228535 -40.332031
v 20.007233 10.228535 -48.259857
v 11.779251 10.228535 -55.475372
v -2.224014 10.228535 -54.614777
v 8.136871 7.040604 -47.050995
v 8.136871 10.228535 -47.050995
v -4.668304 8.634569 -45.409851
v 5.939987 8.634569 -36.796997
v 13.559753 8.634569 -39.716675
v 21.106628 8.634569 -48.398438
v 12.097610 8.634569 -56.110672
v -3.064987 8.634569 -54.997040
v -31.047195 12.001886 -43.560349
v -36.235336 12.194483 -24.066177
v -15.489304 12.870913 -12.128754
v 3.088364 13.102524 -24.686707
v -8.442551 12.530540 -43.502029
v -29.810501 15.599144 -42.145966
v -33.407028 15.807491 -23.981842
v -15.078506 16.399321 -13.794540
v 1.045120 16.580168 -25.946945
v -9.875809 16.051174 -42.975800
v -17.236343 12.496157 -32.881561
v -17.319046 16.038935 -32.938583
v -32.023453 13.756767 -43.258408
v -36.277145 13.978546 -23.306290
v -14.695541 14.673079 -11.456161
v 3.642899 14.877539 -25.354279
v -9.138351 14.270672 -44.523361
v -20.555069 5.741145 -40.186905
v -40.077805 5.741145 -56.105423
v -52.739365 5.741145 -41.081085
v -50.809555 5.741145 -21.389771
v -32.791458 5.741145 -13.215363
v -14.781082 5.741145 -28.968979
v -20.383621 12.119492 -40.912598
v -41.110123 12.119492 -56.566650
v -53.580643 12.119492 -40.600159
v -49.353226 12.119492 -24.007721
v -30.473984 12.119492 -16.275528
v -14.004044 12.119492 -29.574982
v -34.701401 5.741145 -32.867981
v -34.701401 12.119492 -32.867981
v -18.874893 8.930319 -41.610474
v -41.900833 8.930319 -59.001190
v -55.754837 8.930319 -41.263367
v -51.882797 8.930319 -20.817337
v -30.909042 8.930319 -12.227341
v -11.787552 8.930319 -29.015030
v 12.979095 7.078228 -28.155029
v -16.899673 7.078228 -21.721451
v -24.783524 7.078228 18.624954
v 21.472031 7.078228 31.092682
v 45.187057 7.078228 -1.548248
v 9.329651 12.943012 -25.377243
v -15.409531 12.943012 -17.010315
v -19.866409 12.943012 19.045471
v 23.367523 12.943012 26.928101
v 41.788132 12.943012 -4.255966
v 10.866348 7.078228 -1.548248
v 10.866348 12.943012 -1.548248
v 11.201187 10.010620 -29.043671
v -18.338028 10.010620 -21.039063
v -25.012314 10.010620 20.281784
v 23.386581 10.010620 31.287918
v 46.174927 10.010620 -3.230743
v -28.900406 6.860476 50.980957
v -26.898331 6.860476 60.874329
v -16.124161 6.860476 54.857635
v -9.549240 6.860476 44.993111
v -13.833298 6.860476 39.058868
v -27.059006 6.860476 44.861877
v -29.241531 11.000162 51.318588
v -26.650253 11.000162 61.210838
v -15.601669 11.000162 54.711617
v -11.121140 11.000162 46.121613
v -15.921310 11.000162 40.312286
v -27.602066 11.000162 45.076111
v -20.401840 6.860476 48.902290
v -20.401840 11.000162 48.902290
v -30.117020 8.930319 51.499710
v -27.238235 8.930319 62.489418
v -14.963913 8.930319 55.269165
v -8.898087 8.930319 44.826988
v -14.230789 8.930319 38.373169
v -28.295670 8.930319 44.564682
v 29.668121 12.955472 1.984161
v 23.823654 12.955472 -12.193542
v -5.546829 12.955472 -13.618332
v -12.647507 12.955472 9.674316
v 11.817001 12.955472 19.277191
v 27.519989 19.062698 0.371857
v 20.491943 19.062698 -11.184891
v -5.650131 19.062698 -11.196472
v -9.571976 19.062698 10.348618
v 13.628769 19.062698 17.458237
v 10.424713 12.955472 2.548874
v 10.424713 19.062698 2.548874
v 30.235840 16.009087 1.064331
v 23.273956 16.009087 -12.853714
v -6.749069 16.009087 -13.630554
v -12.710434 16.009087 10.619186
v 13.068542 16.009087 19.657852
v 58.845749 8.094389 20.980011
v 53.170120 8.094389 12.886688
v 34.495529 8.094389 16.132721
v 33.314331 8.094389 31.784927
v 50.056519 8.094389 34.374695
v 57.267212 12.031137 20.268845
v 51.216782 12.031137 13.990997
v 34.772110 12.031137 17.670609
v 35.343887 12.031137 31.775314
v 50.939560 12.031137 32.975082
v 46.821548 8.094389 24.049164
v 46.821548 12.031137 24.049164
v 59.073120 10.062763 20.321381
v 52.731277 10.062763 12.548965
v 33.737610 10.062763 16.294586
v 33.408005 10.062763 32.388123
v 50.897400 10.062763 34.437622
vt 0.888129 0.217199
vt 0.817235 0.217199
vt 0.824848 0.336852
vt 0.891225 0.336852
vt 0.841267 0.217199
vt 0.846333 0.336852
vt 0.912728 0.217199
vt 0.911587 0.336852
vt 0.976208 0.217199
vt 0.970979 0.336852
vt 0.967042 0.217199
vt 0.963895 0.336852
vt 0.824666 0.097546
vt 0.889120 0.097546
vt 0.901637 0.097546
vt 0.847532 0.097546
vt 0.914154 0.097546
vt 0.971913 0.097546
vt 0.962080 0.097546
vt 0.901637 0.336852
vt 0.870420 0.601703
vt 0.706192 0.618351
vt 0.711753 0.755643
vt 0.861263 0.740004
vt 0.608653 0.670487
vt 0.627900 0.800070
vt 0.723049 0.685835
vt 0.727928 0.813645
vt 0.880832 0.640280
vt 0.868094 0.773936
vt 0.712447 0.484428
vt 0.872905 0.469971
vt 0.785007 0.507074
vt 0.614189 0.535205
vt 0.717554 0.552592
vt 0.872425 0.509655
vt 0.785476 0.773017
vt 0.856856 0.239399
vt 1.000000 0.239399
vt 0.979961 0.478799
vt 0.851111 0.478799
vt 0.853998 0.239399
vt 0.848540 0.478799
vt 0.685705 0.239399
vt 0.711966 0.478799
vt 0.615000 0.239399
vt 0.648321 0.478799
vt 0.753181 0.239399
vt 0.757790 0.478799
vt 0.976165 -0.000000
vt 0.845138 -0.000000
vt 0.784895 -0.000000
vt 0.852498 -0.000000
vt 0.690417 -0.000000
vt 0.623133 -0.000000
vt 0.752802 -0.000000
vt 0.784895 0.478799
vt 0.753417 0.320494
vt 0.687530 0.320494
vt 0.654369 0.540618
vt 0.723238 0.540618
vt 0.347415 0.320494
vt 0.357591 0.540618
vt 0.256822 0.320494
vt 0.292708 0.540618
vt 0.540949 0.320494
vt 0.549387 0.540618
vt 0.693147 0.100370
vt 0.746103 0.100370
vt 0.527100 0.100370
vt 0.361052 0.100370
vt 0.258429 0.100370
vt 0.527100 0.100370
vt 0.527100 0.540618
vt 0.090457 0.239399
vt 0.000000 0.239399
vt 0.010524 0.394775
vt 0.091948 0.394775
vt 0.059431 0.239399
vt 0.064020 0.394775
vt 0.145381 0.239399
vt 0.134725 0.394775
vt 0.198503 0.239399
vt 0.182542 0.394775
vt 0.147540 0.239399
vt 0.143330 0.394775
vt 0.013294 0.084024
vt 0.094727 0.084024
vt 0.111837 0.084024
vt 0.062818 0.084024
vt 0.144014 0.084024
vt 0.192859 0.084024
vt 0.145094 0.084024
vt 0.111837 0.394775
vt 0.505595 0.770777
vt 0.620156 0.770777
vt 0.606420 1.000000
vt 0.511295 1.000000
vt 0.626550 0.770777
vt 0.606515 1.000000
vt 0.426949 0.770777
vt 0.429176 1.000000
vt 0.352551 0.770777
vt 0.370656 1.000000
vt 0.614722 0.541553
vt 0.498024 0.541553
vt 0.493376 0.541553
vt 0.626450 0.541553
vt 0.434726 0.541553
vt 0.355684 0.541553
vt 0.493376 1.000000
vt 0.347089 0.324408
vt 0.411064 0.324408
vt 0.399195 0.472167
vt 0.347521 0.472167
vt 0.380234 0.324408
vt 0.368908 0.472167
vt 0.247766 0.324408
vt 0.252811 0.472167
vt 0.230897 0.324408
vt 0.242935 0.472167
vt 0.408285 0.176649
vt 0.341668 0.176649
vt 0.316405 0.176649
vt 0.381566 0.176649
vt 0.252731 0.176649
vt 0.231415 0.176649
vt 0.316405 0.472167
vn -0.630344 0.023880 0.775949
vn -0.629955 -0.021381 0.776337
vn -0.573252 0.429389 0.697859
vn -0.573252 0.429389 0.697859
vn 0.357353 0.032835 0.933392
vn 0.358003 -0.015685 0.933589
vn 0.311944 0.465452 0.828278
vn 0.311944 0.465452 0.828278
vn 0.754543 -0.000578 0.656250
vn 0.753851 -0.053186 0.654889
vn 0.671163 0.448545 0.590210
vn 0.671163 0.448545 0.590210
vn 0.649443 0.057981 -0.758197
vn 0.650031 0.019335 -0.759661
vn 0.591416 0.428796 -0.682906
vn 0.591416 0.428796 -0.682906
vn -0.073047 -0.001663 -0.997327
vn -0.073448 -0.027412 -0.996922
vn -0.064142 0.312979 -0.947592
vn -0.064142 0.312979 -0.947592
vn -0.985974 0.023980 -0.165170
vn -0.985977 -0.027470 -0.164604
vn -0.872113 0.465427 -0.150987
vn -0.872113 0.465427 -0.150987
vn 0.000000 -1.000000 0.000000
vn 0.000000 -1.000000 0.000000
vn 0.000000 -1.000000 0.000000
vn 0.000000 -1.000000 0.000000
vn 0.000000 -1.000000 0.000000
vn 0.000000 -1.000000 0.000000
vn 0.000000 -1.000000 0.000000
vn 0.000000 1.000000 0.000000
vn 0.000000 1.000000 -0.000000
vn 0.000000 1.000000 -0.000000
vn 0.000000 1.000000 0.000000
vn 0.000000 1.000000 -0.000000
vn 0.000000 1.000000 -0.000000
vn 0.000000 1.000000 -0.000000
vn -0.565725 -0.427692 0.705007
vn -0.565725 -0.427692 0.705007
vn 0.323469 -0.454512 0.829932
vn 0.323469 -0.454512 0.829932
vn 0.664475 -0.482154 0.570965
vn 0.664475 -0.482154 0.570965
vn 0.599094 -0.373933 -0.707998
vn 0.599094 -0.373933 -0.707998
vn -0.074362 -0.336243 -0.938835
vn -0.074362 -0.336243 -0.938835
vn -0.872647 -0.467614 -0.140804
vn -0.872647 -0.467614 -0.140804
vn -0.882913 0.423106 -0.203585
vn -0.836381 0.513497 -0.191802
vn -0.573542 0.809231 -0.127255
vn -0.573542 0.809231 -0.127255
vn -0.484963 0.169640 0.857924
vn -0.459806 0.378419 0.803354
vn -0.345449 0.735635 0.582672
vn -0.345448 0.735635 0.582672
vn 0.557824 0.317293 0.766915
vn 0.542615 0.388381 0.744802
vn 0.379763 0.769303 0.513764
vn 0.379763 0.769303 0.513764
vn 0.824476 0.177187 -0.537442
vn 0.773619 0.372103 -0.512887
vn 0.598406 0.686321 -0.413368
vn 0.598406 0.686321 -0.413368
vn -0.038449 0.164213 -0.985675
vn -0.039083 0.180080 -0.982875
vn -0.052518 0.604823 -0.794627
vn -0.052518 0.604823 -0.794627
vn 0.023336 -0.999598 0.016086
vn 0.023336 -0.999598 0.016086
vn 0.023336 -0.999598 0.016086
vn 0.023336 -0.999598 0.016086
vn 0.023336 -0.999598 0.016086
vn 0.023336 -0.999598 0.016086
vn -0.023336 0.999598 -0.016086
vn -0.023336 0.999598 -0.016086
vn -0.023336 0.999598 -0.016086
vn -0.023336 0.999598 -0.016086
vn -0.023336 0.999598 -0.016086
vn -0.023336 0.999598 -0.016086
vn -0.952122 -0.206173 -0.225734
vn -0.952123 -0.206173 -0.225734
vn -0.469561 -0.240835 0.849418
vn -0.469561 -0.240835 0.849418
vn 0.570431 -0.216117 0.792403
vn 0.570431 -0.216117 0.792403
vn 0.825163 -0.217355 -0.521405
vn 0.825163 -0.217355 -0.521405
vn -0.021080 -0.211228 -0.977210
vn -0.021080 -0.211228 -0.977210
vn 0.609203 -0.042814 -0.791858
vn 0.608450 0.030467 -0.793007
vn 0.547590 0.417706 -0.725029
vn 0.547590 0.417706 -0.725029
vn -0.774856 -0.139887 -0.616466
vn -0.782221 -0.049587 -0.621025
vn -0.656158 0.553907 -0.512488
vn -0.656158 0.553907 -0.512488
vn -0.983996 0.028811 0.175845
vn -0.982921 -0.068627 0.170754
vn -0.760955 0.627103 0.166403
vn -0.760955 0.627103 0.166403
vn -0.341413 0.470548 0.813647
vn -0.324851 0.539127 0.777054
vn -0.239514 0.775005 0.584808
vn -0.239514 0.775005 0.584808
vn 0.646204 -0.159316 0.746350
vn 0.648530 0.101888 0.754340
vn 0.520921 0.590689 0.616221
vn 0.520921 0.590689 0.616221
vn 0.868064 -0.132885 -0.478337
vn 0.872513 -0.082460 -0.481583
vn 0.773340 0.461073 -0.435152
vn 0.773340 0.461073 -0.435152
vn 0.000000 -1.000000 0.000000
vn 0.000000 -1.000000 0.000000
vn 0.000000 -1.000000 -0.000000
vn 0.000000 -1.000000 -0.000000
vn 0.000000 -1.000000 -0.000000
vn 0.000000 -1.000000 0.000000
vn 0.000000 -1.000000 0.000000
vn 0.000000 1.000000 0.000000
vn 0.000000 1.000000 -0.000000
vn 0.000000 1.000000 -0.000000
vn 0.000000 1.000000 0.000000
vn 0.000000 1.000000 0.000000
vn 0.000000 1.000000 0.000000
vn 0.000000 1.000000 0.000000
vn 0.547033 -0.460947 -0.698772
vn 0.547033 -0.460947 -0.698772
vn -0.579716 -0.666180 -0.469184
vn -0.579716 -0.666180 -0.469184
vn -0.832401 -0.540954 0.120323
vn -0.832401 -0.540954 0.120323
vn -0.389097 -0.172042 0.904989
vn -0.389097 -0.172042 0.904989
vn 0.561437 -0.523804 0.640639
vn 0.561437 -0.523804 0.640639
vn 0.702475 -0.602151 -0.379398
vn 0.702475 -0.602151 -0.379398
vn -0.242138 0.286985 -0.926827
vn -0.225944 0.514769 -0.827020
vn -0.175368 0.794481 -0.581417
vn -0.175368 0.794481 -0.581417
vn -0.941036 0.299474 -0.157376
vn -0.828330 0.544297 -0.132705
vn -0.567097 0.819601 -0.081581
vn -0.567097 0.819601 -0.081581
vn -0.227256 0.145133 0.962960
vn -0.192872 0.470454 0.861088
vn -0.135063 0.743270 0.655216
vn -0.135063 0.743270 0.655216
vn 0.820815 0.146131 0.552185
vn 0.747082 0.449121 0.490059
vn 0.563019 0.747202 0.353127
vn 0.563019 0.747202 0.353127
vn 0.599705 0.097750 -0.794229
vn 0.535061 0.420446 -0.732758
vn 0.408164 0.699649 -0.586425
vn 0.408164 0.699649 -0.586425
vn 0.000000 -1.000000 -0.000000
vn 0.000000 -1.000000 -0.000000
vn 0.000000 -1.000000 -0.000000
vn 0.000000 -1.000000 -0.000000
vn 0.000000 -1.000000 -0.000000
vn 0.000000 -1.000000 0.000000
vn 0.000000 1.000000 -0.000000
vn 0.000000 1.000000 -0.000000
vn 0.000000 1.000000 -0.000000
vn 0.000000 1.000000 -0.000000
vn 0.000000 1.000000 -0.000000
vn 0.000000 1.000000 -0.000000
vn -0.233022 -0.161515 -0.958965
vn -0.233022 -0.161515 -0.958965
vn -0.963493 -0.205381 -0.171754
vn -0.963493 -0.205381 -0.171754
vn -0.234199 -0.230909 0.944369
vn -0.234199 -0.230909 0.944369
vn 0.795203 -0.253904 0.550623
vn 0.795203 -0.253904 0.550623
vn 0.594965 -0.254141 -0.762515
vn 0.594965 -0.254141 -0.762515
vn -0.970004 -0.038767 0.239977
vn -0.970399 0.006335 0.241426
vn -0.888254 0.396062 0.232680
vn -0.888254 0.396062 0.232680
vn 0.501150 -0.072598 0.862310
vn 0.502748 -0.026854 0.864016
vn 0.472626 0.362051 0.803458
vn 0.472626 0.362051 0.803458
vn 0.860751 0.011741 0.508890
vn 0.856078 -0.073543 0.511588
vn 0.776617 0.460072 0.430349
vn 0.776617 0.460072 0.430349
vn 0.688919 0.469811 -0.551968
vn 0.670688 0.509769 -0.538807
vn 0.487167 0.775004 -0.402539
vn 0.487167 0.775004 -0.402539
vn -0.396307 -0.115244 -0.910856
vn -0.395838 0.062893 -0.916164
vn -0.357006 0.410674 -0.838984
vn -0.357006 0.410674 -0.838984
vn -0.959405 -0.106917 -0.260979
vn -0.963728 -0.054855 -0.261190
vn -0.902048 0.360811 -0.236905
vn -0.902048 0.360811 -0.236905
vn 0.000000 -1.000000 0.000000
vn 0.000000 -1.000000 0.000000
vn 0.000000 -1.000000 -0.000000
vn 0.000000 -1.000000 0.000000
vn 0.000000 -1.000000 0.000000
vn 0.000000 -1.000000 -0.000000
vn 0.000000 -1.000000 -0.000000
vn 0.000000 1.000000 0.000000
vn 0.000000 1.000000 0.000000
vn 0.000000 1.000000 0.000000
vn 0.000000 1.000000 0.000000
vn 0.000000 1.000000 0.000000
vn 0.000000 1.000000 0.000000
vn 0.000000 1.000000 0.000000
vn -0.876683 -0.435250 0.204901
vn -0.876683 -0.435250 0.204901
vn 0.441269 -0.463596 0.768349
vn 0.441269 -0.463596 0.768349
vn 0.787470 -0.373633 0.490193
vn 0.787470 -0.373633 0.490193
vn 0.778151 -0.171982 -0.604073
vn 0.778151 -0.171982 -0.604073
vn -0.376596 -0.352107 -0.856852
vn -0.376596 -0.352107 -0.856852
vn -0.841449 -0.486026 -0.236096
vn -0.841450 -0.486026 -0.236096
vn 0.869966 0.247906 -0.426264
vn 0.829186 0.371492 -0.417666
vn 0.662591 0.654652 -0.363873
vn 0.662591 0.654652 -0.363873
vn 0.029119 0.153905 -0.987657
vn 0.024462 0.278913 -0.960005
vn 0.011631 0.559822 -0.828531
vn 0.011631 0.559822 -0.828531
vn -0.954348 0.176231 -0.241169
vn -0.931221 0.284122 -0.228260
vn -0.780888 0.601508 -0.168527
vn -0.780888 0.601508 -0.168527
vn -0.334634 0.100189 0.937007
vn -0.318107 0.250580 0.914340
vn -0.271587 0.497663 0.823755
vn -0.271587 0.497663 0.823755
vn 0.725506 0.106835 0.679873
vn 0.720060 0.199107 0.664734
vn 0.653270 0.499869 0.568656
vn 0.653270 0.499869 0.568656
vn 0.000000 -1.000000 -0.000000
vn 0.000000 -1.000000 0.000000
vn 0.000000 -1.000000 -0.000000
vn 0.000000 -1.000000 -0.000000
vn 0.000000 -1.000000 0.000000
vn 0.000000 -1.000000 0.000000
vn 0.000000 1.000000 -0.000000
vn 0.000000 1.000000 0.000000
vn 0.000000 1.000000 -0.000000
vn 0.000000 1.000000 -0.000000
vn 0.000000 1.000000 -0.000000
vn 0.000000 1.000000 -0.000000
vn 0.904478 -0.109327 -0.412271
vn 0.904478 -0.109327 -0.412271
vn 0.036861 -0.098909 -0.994414
vn 0.036861 -0.098909 -0.994414
vn -0.952262 -0.157315 -0.261629
vn -0.952262 -0.157315 -0.261629
vn -0.344690 -0.134553 0.929023
vn -0.344690 -0.134553 0.929023
vn 0.707631 -0.149833 0.690513
vn 0.707631 -0.149833 0.690513
vn 0.755627 0.247902 -0.606278
vn 0.717716 0.371490 -0.588965
vn 0.566925 0.654652 -0.500026
vn 0.566925 0.654652 -0.500026
vn -0.187676 0.153905 -0.970099
vn -0.186170 0.278913 -0.942098
vn -0.169925 0.559823 -0.811002
vn -0.169925 0.559823 -0.811002
vn -0.983992 0.176229 -0.026524
vn -0.958601 0.284121 -0.018987
vn -0.798842 0.601506 0.006406
vn -0.798842 0.601506 0.006406
vn -0.121518 0.100186 0.987520
vn -0.110350 0.250578 0.961787
vn -0.084776 0.497662 0.863218
vn -0.084776 0.497662 0.863218
vn 0.856678 0.106835 0.504668
vn 0.848051 0.199107 0.491087
vn 0.761859 0.499869 0.411950
vn 0.761859 0.499869 0.411950
vn 0.000000 -1.000000 -0.000000
vn 0.000000 -1.000000 -0.000000
vn 0.000000 -1.000000 -0.000000
vn 0.000000 -1.000000 -0.000000
vn 0.000000 -1.000000 -0.000000
vn 0.000000 -1.000000 -0.000000
vn 0.000000 1.000000 -0.000000
vn 0.000000 1.000000 0.000000
vn 0.000000 1.000000 -0.000000
vn 0.000000 1.000000 -0.000000
vn 0.000000 1.000000 -0.000000
vn 0.000000 1.000000 -0.000000
vn 0.792362 -0.109334 -0.600173
vn 0.792362 -0.109334 -0.600173
vn -0.181599 -0.098911 -0.978386
vn -0.181599 -0.098911 -0.978386
vn -0.986432 -0.157317 -0.046945
vn -0.986432 -0.157317 -0.046945
vn -0.133077 -0.134557 0.981929
vn -0.133077 -0.134557 0.981929
vn 0.841564 -0.149833 0.518961
vn 0.841564 -0.149833 0.518961
s 1
g Rubble_01
usemtl initialShadingGroup
f 15/1/1 16/2/2 8/3/3 7/4/4
s 2
f 16/2/5 17/5/6 9/6/7 8/3/8
s 3
f 17/5/9 18/7/10 10/8/11 9/6/12
s 4
f 18/7/13 19/9/14 11/10/15 10/8/16
s 5
f 19/9/17 20/11/18 12/12/19 11/10/20
s 6
f 20/11/21 15/1/22 7/4/23 12/12/24
s 7
f 2/13/25 1/14/26 13/15/27
f 3/16/28 2/13/25 13/15/27
f 4/17/29 3/16/28 13/15/27
f 5/18/30 4/17/29 13/15/27
f 6/19/31 5/18/30 13/15/27
f 1/14/26 6/19/31 13/15/27
s 8
f 7/4/32 8/3/33 14/20/34
f 8/3/33 9/6/35 14/20/34
f 9/6/35 10/8/36 14/20/34
f 10/8/36 11/10/37 14/20/34
f 11/10/37 12/12/38 14/20/34
f 12/12/38 7/4/32 14/20/34
s 1
f 1/14/39 2/13/40 16/2/2 15/1/1
s 2
f 2/13/41 3/16/42 17/5/6 16/2/5
s 3
f 3/16/43 4/17/44 18/7/10 17/5/9
s 4
f 4/17/45 5/18/46 19/9/14 18/7/13
s 5
f 5/18/47 6/19/48 20/11/18 19/9/17
s 6
f 6/19/49 1/14/50 15/1/22 20/11/21
s 9
f 33/21/51 34/22/52 27/23/53 26/24/54
s 10
f 34/22/55 35/25/56 28/26/57 27/23/58
s 11
f 35/25/59 36/27/60 29/28/61 28/26/62
s 12
f 36/27/63 37/29/64 30/30/65 29/28/66
s 13
f 37/29/67 33/21/68 26/24/69 30/30/70
s 14
f 22/31/71 21/32/72 31/33/73
f 23/34/74 22/31/71 31/33/73
f 24/35/75 23/34/74 31/33/73
f 25/36/76 24/35/75 31/33/73
f 21/32/72 25/36/76 31/33/73
s 15
f 26/24/77 27/23/78 32/37/79
f 27/23/78 28/26/80 32/37/79
f 28/26/80 29/28/81 32/37/79
f 29/28/81 30/30/82 32/37/79
f 30/30/82 26/24/77 32/37/79
s 9
f 21/32/83 22/31/84 34/22/52 33/21/51
s 10
f 22/31/85 23/34/86 35/25/56 34/22/55
s 11
f 23/34/87 24/35/88 36/27/60 35/25/59
s 12
f 24/35/89 25/36/90 37/29/64 36/27/63
s 13
f 25/36/91 21/32/92 33/21/68 37/29/67
s 16
f 52/38/93 53/39/94 45/40/95 44/41/96
s 17
f 53/39/97 54/42/98 46/43/99 45/40/100
s 18
f 54/42/101 55/44/102 47/45/103 46/43/104
s 19
f 55/44/105 56/46/106 48/47/107 47/45/108
s 20
f 56/46/109 57/48/110 49/49/111 48/47/112
s 21
f 57/48/113 52/38/114 44/41/115 49/49/116
s 22
f 39/50/117 38/51/118 50/52/119
f 40/53/120 39/50/117 50/52/119
f 41/54/121 40/53/120 50/52/119
f 42/55/122 41/54/121 50/52/119
f 43/56/123 42/55/122 50/52/119
f 38/51/118 43/56/123 50/52/119
s 23
f 44/41/124 45/40/125 51/57/126
f 45/40/125 46/43/127 51/57/126
f 46/43/127 47/45/128 51/57/126
f 47/45/128 48/47/129 51/57/126
f 48/47/129 49/49/130 51/57/126
f 49/49/130 44/41/124 51/57/126
s 16
f 38/51/131 39/50/132 53/39/94 52/38/93
s 17
f 39/50/133 40/53/134 54/42/98 53/39/97
s 18
f 40/53/135 41/54/136 55/44/102 54/42/101
s 19
f 41/54/137 42/55/138 56/46/106 55/44/105
s 20
f 42/55/139 43/56/140 57/48/110 56/46/109
s 21
f 43/56/141 38/51/142 52/38/114 57/48/113
s 24
f 70/58/143 71/59/144 64/60/145 63/61/146
s 25
f 71/59/147 72/62/148 65/63/149 64/60/150
s 26
f 72/62/151 73/64/152 66/65/153 65/63/154
s 27
f 73/64/155 74/66/156 67/67/157 66/65/158
s 28
f 74/66/159 70/58/160 63/61/161 67/67/162
s 29
f 59/68/163 58/69/164 68/70/165
f 60/71/166 59/68/163 68/70/165
f 61/72/167 60/71/166 68/70/165
f 62/73/168 61/72/167 68/70/165
f 58/69/164 62/73/168 68/70/165
s 30
f 63/61/169 64/60/170 69/74/171
f 64/60/170 65/63/172 69/74/171
f 65/63/172 66/65/173 69/74/171
f 66/65/173 67/67/174 69/74/171
f 67/67/174 63/61/169 69/74/171
s 24
f 58/69/175 59/68/176 71/59/144 70/58/143
s 25
f 59/68/177 60/71/178 72/62/148 71/59/147
s 26
f 60/71/179 61/72/180 73/64/152 72/62/151
s 27
f 61/72/181 62/73/182 74/66/156 73/64/155
s 28
f 62/73/183 58/69/184 70/58/160 74/66/159
s 31
f 89/75/185 90/76/186 82/77/187 81/78/188
s 32
f 90/76/189 91/79/190 83/80/191 82/77/192
s 33
f 91/79/193 92/81/194 84/82/195 83/80/196
s 34
f 92/81/197 93/83/198 85/84/199 84/82/200
s 35
f 93/83/201 94/85/202 86/86/203 85/84/204
s 36
f 94/85/205 89/75/206 81/78/207 86/86/208
s 37
f 76/87/209 75/88/210 87/89/211
f 77/90/212 76/87/209 87/89/211
f 78/91/213 77/90/212 87/89/211
f 79/92/214 78/91/213 87/89/211
f 80/93/215 79/92/214 87/89/211
f 75/88/210 80/93/215 87/89/211
s 38
f 81/78/216 82/77/217 88/94/218
f 82/77/217 83/80/219 88/94/218
f 83/80/219 84/82/220 88/94/218
f 84/82/220 85/84/221 88/94/218
f 85/84/221 86/86/222 88/94/218
f 86/86/222 81/78/216 88/94/218
s 31
f 75/88/223 76/87/224 90/76/186 89/75/185
s 32
f 76/87/225 77/90/226 91/79/190 90/76/189
s 33
f 77/90/227 78/91/228 92/81/194 91/79/193
s 34
f 78/91/229 79/92/230 93/83/198 92/81/197
s 35
f 79/92/231 80/93/232 94/85/202 93/83/201
s 36
f 80/93/233 75/88/234 89/75/206 94/85/205
s 39
f 107/95/235 108/96/236 101/97/237 100/98/238
s 40
f 108/96/239 109/99/240 102/100/241 101/97/242
s 41
f 109/99/243 110/101/244 103/102/245 102/100/246
s 42
f 110/101/247 111/103/248 104/104/249 103/102/250
s 43
f 111/103/251 107/95/252 100/98/253 104/104/254
s 44
f 96/105/255 95/106/256 105/107/257
f 97/108/258 96/105/255 105/107/257
f 98/109/259 97/108/258 105/107/257
f 99/110/260 98/109/259 105/107/257
f 95/106/256 99/110/260 105/107/257
s 45
f 100/98/261 101/97/262 106/111/263
f 101/97/262 102/100/264 106/111/263
f 102/100/264 103/102/265 106/111/263
f 103/102/265 104/104/266 106/111/263
f 104/104/266 100/98/261 106/111/263
s 39
f 95/106/267 96/105/268 108/96/236 107/95/235
s 40
f 96/105/269 97/108/270 109/99/240 108/96/239
s 41
f 97/108/271 98/109/272 110/101/244 109/99/243
s 42
f 98/109/273 99/110/274 111/103/248 110/101/247
s 43
f 99/110/275 95/106/276 107/95/252 111/103/251
s 46
f 124/112/277 125/113/278 118/114/279 117/115/280
s 47
f 125/113/281 126/116/282 119/117/283 118/114/284
s 48
f 126/116/285 127/118/286 120/119/287 119/117/288
s 49
f 127/118/289 128/120/290 121/121/291 120/119/292
s 50
f 128/120/293 124/112/294 117/115/295 121/121/296
s 51
f 113/122/297 112/123/298 122/124/299
f 114/125/300 113/122/297 122/124/299
f 115/126/301 114/125/300 122/124/299
f 116/127/302 115/126/301 122/124/299
f 112/123/298 116/127/302 122/124/299
s 52
f 117/115/303 118/114/304 123/128/305
f 118/114/304 119/117/306 123/128/305
f 119/117/306 120/119/307 123/128/305
f 120/119/307 121/121/308 123/128/305
f 121/121/308 117/115/303 123/128/305
s 46
f 112/123/309 113/122/310 125/113/278 124/112/277
s 47
f 113/122/311 114/125/312 126/116/282 125/113/281
s 48
f 114/125/313 115/126/314 127/118/286 126/116/285
s 49
f 115/126/315 116/127/316 128/120/290 127/118/289
s 50
f 116/127/317 112/123/318 124/112/294 128/120/293
